<svg width="38" height="31" viewBox="0 0 38 31" fill="none" xmlns="http://www.w3.org/2000/svg">
<path fill-rule="evenodd" clip-rule="evenodd" d="M34.0093 7.75004L30.2305 0H37.7881V27.125C37.7881 29.2562 36.0876 31 34.0093 31H19.8637L27.3917 26.5428C28.067 26.1427 28.4829 25.4039 28.4829 24.6031C28.4829 23.803 28.0672 23.0642 27.3917 22.664L12.624 13.9226C12.2858 13.7223 11.9095 13.623 11.5319 13.623C11.1545 13.623 10.7782 13.7226 10.4405 13.9228C9.76431 14.3225 9.3486 15.0618 9.3486 15.8623V31H3.77881C1.70046 31 0 29.2562 0 27.125V3.87499C0 1.74375 1.70046 0 3.77881 0H5.66821L9.44702 7.75004H15.1152L11.3364 0H15.1152L18.8941 7.75004H24.5623L20.7834 0H24.5623L28.3411 7.75004H34.0093Z" fill="white"/>
</svg>
